<?xml version="1.0" encoding="utf-8"?>
<!-- Generator: Adobe Illustrator 22.1.0, SVG Export Plug-In . SVG Version: 6.00 Build 0)  -->
<svg version="1.1" id="Capa_1" xmlns="http://www.w3.org/2000/svg" xmlns:xlink="http://www.w3.org/1999/xlink" x="0px" y="0px"
	 viewBox="0 0 526.8 233" style="enable-background:new 0 0 526.8 233;" xml:space="preserve">
<style type="text/css">
	.st0{fill:#FF9E18;}
	.st1{fill:url(#SVGID_1_);}
	.st2{fill:#FF5100;}
	.st3{fill:#96262C;}
	.st4{fill:#1A3358;}
	.st5{fill:url(#SVGID_2_);}
	.st6{fill:#010202;}
	.st7{fill:#7C79B8;}
	.st8{fill:#DE0A18;}
	.st9{fill:#17A6DF;}
	.st10{fill:#00548D;}
	.st11{fill:#FFFFFF;}
	.st12{fill:#EA560D;}
	.st13{fill:#E30613;}
	.st14{fill:#F59E00;}
	.st15{fill:url(#SVGID_3_);}
	.st16{fill:#01568C;}
	.st17{fill:#0071CE;}
</style>
<g>
	<g>
		<path class="st4" d="M223.7,147.2c3.2-0.5,7-0.9,11.2-0.9c7.5,0,12.9,1.8,16.4,5.1c3.6,3.3,5.8,8,5.8,14.6
			c0,6.6-2.1,12.1-5.9,15.7c-3.9,3.8-10.1,5.8-18,5.8c-3.8,0-6.9-0.2-9.5-0.5L223.7,147.2z M229,183.1c1.3,0.2,3.3,0.2,5.3,0.2
			c11.3,0,17.3-6.2,17.3-17.2c0.1-9.6-5.3-15.7-16.4-15.7c-2.7,0-4.8,0.2-6.1,0.5L229,183.1z"/>
		<path class="st4" d="M268.4,173.6c0.1,7.2,4.6,10.1,10,10.1c3.8,0,6.2-0.6,8.1-1.5l1,3.8c-1.9,0.9-5.1,1.9-9.8,1.9
			c-9,0-14.4-6-14.3-14.8c0-8.8,5.2-15.6,13.7-15.6c9.6,0,12,8.3,12,13.7c0,1.1,0,1.9-0.2,2.5L268.4,173.6z M283.9,169.9
			c0.1-3.3-1.4-8.6-7.4-8.6c-5.4,0-7.7,4.9-8.1,8.6L283.9,169.9z M285.2,145.5l-7.4,8.6l-3.7,0l5.3-8.6H285.2z"/>
		<path class="st4" d="M297.2,144.5l5.3,0l0,18.3h0.1c1.9-3.2,5.3-5.3,9.9-5.3c7.3,0,12.4,6,12.4,14.8c0,10.4-6.7,15.6-13.1,15.6
			c-4.2,0-7.6-1.6-9.8-5.5h-0.1l-0.3,4.8l-4.5,0c0.1-2,0.3-4.9,0.3-7.5L297.2,144.5z M302.4,175.6c0,0.7,0.1,1.3,0.2,1.9
			c1,3.7,4.1,6.2,8,6.2c5.6,0,8.9-4.5,8.9-11.2c0-5.9-3-10.9-8.7-10.9c-3.6,0-6.9,2.5-8,6.5c-0.2,0.7-0.3,1.4-0.3,2.2V175.6z"/>
		<path class="st4" d="M338.8,150c0,1.8-1.2,3.3-3.4,3.3c-1.9,0-3.2-1.5-3.2-3.3c0-1.8,1.3-3.3,3.3-3.3
			C337.5,146.7,338.8,148.1,338.8,150z M332.9,187.4l0-29.2l5.3,0l0,29.2H332.9z"/>
		<path class="st4" d="M355,151.2l0,7l7.6,0v4l-7.6,0l0,15.7c0,3.6,1,5.7,4,5.7c1.4,0,2.3-0.1,3.1-0.4l0.2,4.1
			c-1,0.4-2.7,0.7-4.7,0.7c-2.5,0-4.5-0.9-5.7-2.3c-1.4-1.6-2.1-4.2-2.1-7.7l0-15.9h-4.5v-4h4.5v-5.4L355,151.2z"/>
		<path class="st4" d="M396,172.6c0,10.8-7.6,15.5-14.6,15.5c-7.8,0-13.9-5.8-13.9-15c0-9.7,6.5-15.4,14.5-15.4
			C390.4,157.7,396,163.8,396,172.6z M372.9,172.9c0,6.4,3.6,11.2,8.8,11.2c5,0,8.9-4.7,8.9-11.3c0-5-2.5-11.2-8.7-11.2
			C375.7,161.6,373,167.4,372.9,172.9z"/>
	</g>
	<g>
		<linearGradient id="SVGID_1_" gradientUnits="userSpaceOnUse" x1="143.7135" y1="133.4395" x2="376.74" y2="44.0627">
			<stop  offset="0" style="stop-color:#1D2C50"/>
			<stop  offset="1" style="stop-color:#1B3F80"/>
		</linearGradient>
		<path class="st1" d="M221.5,46.5l-36.9,88h-24l-18.2-70.2c-1.1-4.3-2.1-5.9-5.4-7.7c-5.5-3-14.5-5.8-22.5-7.5l0.5-2.6h38.7
			c5,0,9.4,3.3,10.5,9l9.6,50.9l23.7-59.9H221.5z M315.8,105.8c0.1-23.2-32.1-24.5-31.9-34.9c0.1-3.2,3.1-6.5,9.7-7.4
			c3.3-0.4,12.3-0.8,22.4,3.9l4-18.6c-5.5-2-12.5-3.9-21.3-3.9c-22.5,0-38.3,12-38.5,29.1c-0.1,12.7,11.3,19.7,19.9,24
			c8.9,4.3,11.8,7.1,11.8,10.9c-0.1,5.9-7.1,8.5-13.6,8.6c-11.5,0.2-18.1-3.1-23.4-5.6l-4.1,19.3c5.3,2.4,15.2,4.6,25.3,4.7
			C300,135.9,315.7,124,315.8,105.8 M375.1,134.5h21l-18.4-88h-19.4c-4.4,0-8,2.5-9.7,6.5l-34.1,81.5h23.9l4.7-13.1h29.2
			L375.1,134.5z M349.8,103.3l12-33l6.9,33H349.8z M254,46.5l-18.8,88h-22.8l18.8-88H254z"/>
	</g>
</g>
</svg>
