<?xml version="1.0" encoding="utf-8"?>
<!-- Generator: Adobe Illustrator 22.1.0, SVG Export Plug-In . SVG Version: 6.00 Build 0)  -->
<svg version="1.1" id="Capa_1" xmlns="http://www.w3.org/2000/svg" xmlns:xlink="http://www.w3.org/1999/xlink" x="0px" y="0px"
	 viewBox="0 0 526.8 233" style="enable-background:new 0 0 526.8 233;" xml:space="preserve">
<style type="text/css">
	.st0{fill:#FF9E18;}
	.st1{fill:url(#SVGID_1_);}
	.st2{fill:#FF5100;}
	.st3{fill:#96262C;}
	.st4{fill:#1A3358;}
	.st5{fill:url(#SVGID_2_);}
	.st6{fill:#010202;}
	.st7{fill:#7C79B8;}
	.st8{fill:#DE0A18;}
	.st9{fill:#17A6DF;}
	.st10{fill:#00548D;}
	.st11{fill:#FFFFFF;}
	.st12{fill:#EA560D;}
	.st13{fill:#E30613;}
	.st14{fill:#F59E00;}
	.st15{fill:url(#SVGID_3_);}
	.st16{fill:#01568C;}
	.st17{fill:#0071CE;}
</style>
<g>
	<path class="st16" d="M286.2,175.1c6.1,0,8.2,3.1,8.2,6.7v11.5c0,3.5-2.1,6.7-8.2,6.7H277v-24.8H286.2z M281.7,195.8h4
		c3.2,0,4-1.3,4-3.6v-9.2c0-2.4-0.9-3.6-4-3.6h-4V195.8z"/>
	<path class="st16" d="M299.5,175.1h15.2v4.1h-10.5v6h9.7v4.1h-9.7v6.4h10.5v4.1h-15.2V175.1z M304.6,171c1.8-1.1,3.4-2.2,4.9-3.3
		l1.7,2.8c-1.7,1.2-3,2-5,3.1L304.6,171z"/>
	<path class="st16" d="M319.5,199.9v-24.8h9.8c4.7,0,6.6,1.9,6.6,5.3v2.6c0,2-0.9,3.2-2.7,4c2.3,0.5,3.6,2.2,3.6,4.6v2.6
		c0,3.5-2.3,5.7-6.8,5.7H319.5z M331.1,181c0-1.4-0.7-2-2.5-2h-4.5v6.5h4.5c1.8,0,2.5-0.9,2.5-2.3V181z M332,191.7
		c0-1.7-0.7-2.5-2.6-2.5h-5.2v6.8h4.8c2.1,0,3-0.6,3-2.4V191.7z"/>
	<rect x="341.1" y="175.1" class="st16" width="4.7" height="24.8"/>
	<polygon class="st16" points="356.6,179.2 349.7,179.2 349.7,175.1 368.2,175.1 368.2,179.2 361.3,179.2 361.3,199.9 356.6,199.9 	
		"/>
	<path class="st16" d="M389.5,192.6c0,4.1-2.4,7.6-9.4,7.6c-7,0-9.4-3.5-9.4-7.6v-10.3c0-4.1,2.4-7.6,9.4-7.6c7,0,9.4,3.5,9.4,7.6
		V192.6z M375.4,192.4c0,2.3,1.2,3.8,4.7,3.8s4.7-1.4,4.7-3.8v-9.7c0-2.3-1.2-3.8-4.7-3.8s-4.7,1.4-4.7,3.8V192.4z"/>
	<path class="st16" d="M72.4,161.8l356.7,0c14,0,25.3-11.3,25.3-25.3V32.7h-382V161.8z"/>
	<path class="st11" d="M274.9,104.3L267,79.6l-7.7,24.7H274.9z M274.4,71.5l17.7,52.3H281l-3.5-10.8h-20.8l-3.6,10.8h-11.1
		l16.3-48.3c0.8-2.4,3-4,5.6-4H274.4z"/>
	<path class="st11" d="M324.9,110.5c0,3.8-2,5.1-6.8,5.1h-10.9v-14.3H319c4.2,0,5.9,1.7,5.9,5.3V110.5z M307.2,79.6h10.2
		c3.9,0,5.6,1.3,5.6,4.2v4.6c0,3.1-1.5,4.9-5.6,4.9h-10.1V79.6z M327.3,96.5c4.3-1.7,6.2-4.2,6.2-8.5v-5.4c0-7.1-4.3-11.1-14.9-11.1
		h-22.1v52.3h23.6c10.2,0,15.3-4.6,15.3-12v-5.6C335.5,101.1,332.5,97.5,327.3,96.5"/>
	<path class="st11" d="M222.6,78.8h15.2V75c0-2.9-2.3-5.2-5.2-5.2h-10.1C209,70,203.1,75.5,203.1,85v23.5c0,9.5,5.8,15,19.5,15.1v0
		h14.7v-3.8c0-2.9-2.3-5.2-5.2-5.2h-9.5v0c-6.6-0.2-8.9-2.5-8.9-7.9V86.7C213.8,81.4,216,79,222.6,78.8"/>
	<path class="st11" d="M402.4,115V79.7v-9h-4.7c-3.3,0-5.9,2.6-5.9,5.9v3.1v44.1h33.7V115H402.4z"/>
	<path class="st11" d="M370.8,104.3L363,79.6l-7.7,24.7H370.8z M370.4,71.5l17.7,52.3h-11.1l-3.5-10.8h-20.8l-3.6,10.8h-11.1
		l15.8-46.8c1.1-3.3,4.2-5.5,7.6-5.5H370.4z"/>
	<path class="st11" d="M145.5,55.3l38.7,38.1c2.2,2.1,2.2,5.6,0,7.7l-38.7,38l0-21.3l18.2-18c1.5-1.5,1.5-3.9,0-5.4l-18.2-18V55.3z"
		/>
	<path class="st11" d="M138.3,55.3L99.6,93.4c-2.2,2.1-2.2,5.6,0,7.7l38.7,38l0-21.3l-18.2-18c-1.5-1.5-1.5-3.9,0-5.4l18.2-18V55.3z
		"/>
</g>
</svg>
